<svg xmlns="http://www.w3.org/2000/svg" width="100" height="100" viewBox="0 0 100 100" fill="#006AFF">
  <g>
    <path d="M72.5181,24.9209 L65.2011,24.9209 L65.2011,22.1129 C65.2011,21.6449 64.7121,21.1759 64.2241,21.1759 C63.7371,21.1759 63.2481,21.6449 63.2481,22.1129 L63.2481,24.9209 L35.4401,24.9209 L35.4401,22.1129 C35.4401,21.6449 34.9521,21.1759 34.4641,21.1759 C33.9761,21.1759 33.4881,21.6449 33.4881,22.1129 L33.4881,24.9209 L26.1701,24.9209 C24.2191,24.9209 22.7551,26.3249 22.7551,28.1969 L22.7551,72.4539 C22.7551,74.3259 24.2191,75.7299 26.1701,75.7299 L72.5181,75.7299 C74.4701,75.7299 75.9331,74.3259 75.9331,72.4539 L75.9331,28.1969 C75.9331,26.3249 74.4701,24.9209 72.5181,24.9209 Z M73.9821,72.3559 C73.9821,73.0789 73.2501,73.8009 72.5181,73.8009 L26.1701,73.8009 C25.4381,73.8009 24.7061,73.0789 24.7061,72.3559 L24.7061,28.4069 C24.7061,27.6839 25.4381,26.9609 26.1701,26.9609 L33.4881,26.9609 L33.4881,28.8889 C32.0241,29.3709 30.8051,30.5759 30.8051,32.2629 C30.8051,34.1909 32.5121,35.8779 34.4641,35.8779 C36.4151,35.8779 38.1231,34.1909 38.1231,32.2629 C38.1231,30.5759 36.9031,29.3709 35.4401,28.8889 L35.4401,26.9609 L63.2481,26.9609 L63.2481,28.6479 C61.7851,29.1299 60.5651,30.3349 60.5651,32.0219 C60.5651,33.9499 62.2731,35.6369 64.2241,35.6369 C66.1761,35.6369 67.8831,33.9499 67.8831,32.0219 C67.8831,30.3349 66.6641,29.1299 65.2011,28.6479 L65.2011,26.9609 L72.5181,26.9609 C73.2501,26.9609 73.9821,27.6839 73.9821,28.4069 L73.9821,72.3559 Z M33.9761,30.8169 L34.4641,30.8169 L34.9521,30.8169 C35.6841,31.0579 36.1711,31.5399 36.1711,32.2629 C36.1711,33.2269 35.4401,33.9499 34.4641,33.9499 C33.4881,33.9499 32.7561,33.2269 32.7561,32.2629 C32.7561,31.5399 33.2441,31.0579 33.9761,30.8169 Z M63.5371,30.5759 C63.7811,30.8169 64.0251,30.8169 64.2681,30.8169 C64.5121,30.8169 64.7561,30.8169 65.0001,30.5759 C65.4881,30.8169 65.9761,31.2989 65.9761,32.0219 C65.9761,32.9859 65.2451,33.7089 64.2681,33.7089 C63.2921,33.7089 62.5611,32.9859 62.5611,32.0219 C62.5611,31.5399 63.0481,30.8169 63.5371,30.5759 Z"/>
    <path d="M53.9468,55.3891 C53.9468,56.7701 52.9308,57.6611 51.0748,57.8631 L51.0748,52.6281 C53.3078,53.2891 53.9468,54.0661 53.9468,55.3311 L53.9468,55.3891 Z M48.7828,48.6301 C46.5498,47.9401 45.9988,47.1631 45.9988,45.9551 L45.9988,45.9261 C45.9988,44.6891 46.9268,43.7121 48.7828,43.5391 L48.7828,48.6301 Z M51.0748,49.2341 L51.0748,43.7121 C52.4098,43.9991 53.7438,44.6601 55.0198,45.5811 L56.6438,42.8771 C55.0198,41.6981 53.2798,40.9511 51.1908,40.6911 L51.1908,38.9661 L48.6678,38.9661 L48.6678,40.6341 C45.0418,40.9511 42.5758,43.0501 42.5758,46.1571 L42.5758,46.1851 C42.5758,49.4351 44.5488,51.0171 48.7828,52.0811 L48.7828,57.7471 C46.8978,57.4311 45.3318,56.5691 43.6778,55.2171 L41.8218,57.8631 C43.7648,59.4161 46.1438,60.4231 48.6678,60.7101 L48.6678,63.5861 L51.1908,63.5861 L51.1908,60.7681 C54.8748,60.4231 57.3698,58.3231 57.3698,55.1881 L57.3698,55.1301 C57.3698,52.0531 55.4838,50.3271 51.0748,49.2341 Z"/>
    <path d="M49.3442,3 C23.2392,3 2.0002,24.058 2.0002,49.941 C2.0002,75.824 23.2392,96.881 49.3442,96.881 C75.4502,96.881 96.6892,75.824 96.6892,49.941 C96.6892,24.058 75.4502,3 49.3442,3 M49.3442,98.881 C22.1362,98.881 0.0002,76.927 0.0002,49.941 C0.0002,22.955 22.1362,1 49.3442,1 C76.5532,1 98.6892,22.955 98.6892,49.941 C98.6892,76.927 76.5532,98.881 49.3442,98.881"/>
  </g>
</svg>
