<svg id="Layer_1" data-name="Layer 1" xmlns="http://www.w3.org/2000/svg" viewBox="0 0 500 150"><defs><style>.cls-1{fill:#0d4599;}.cls-2{fill:#ffd237;}.cls-3{fill:#006aff;}.cls-4{fill:#f2a619;}.cls-5{fill:#ffdc69;}.cls-6{fill:#a6e5ff;}.cls-7{fill:#fff;}.cls-8{fill:#e0f2ff;}</style></defs><title>Artboard 41 copy 2</title><path class="cls-1" d="M204.23,139.71c.24.13.49.25.74.36a21.53,21.53,0,0,0,10.58,1.53c4.08-.31,8.32-1.45,11.18-4.36,8.21-8.35-2.44-16.48-10.15-18.55-4.45-1.19-9.45-.84-13.3,1.67s-6.27,7.4-5.21,11.88A11.9,11.9,0,0,0,204.23,139.71Z"/><path class="cls-1" d="M208.56,125.33l.55.3a14.53,14.53,0,0,0,7.92,1.28c3.06-.26,6.23-1.21,8.37-3.66,6.15-7-1.83-13.83-7.59-15.57a11.33,11.33,0,0,0-10,1.41,10.22,10.22,0,0,0-3.9,10A9.84,9.84,0,0,0,208.56,125.33Z"/><path class="cls-2" d="M125,132.73l.8-.59a20.11,20.11,0,0,0,6.48-10.49c1.3-4.51,1.54-9.64-1.18-14.24-7.78-13.17-23.18-6.09-29.19,1a15.74,15.74,0,0,0-3.33,15.08,18.73,18.73,0,0,0,13.79,11.82A16.87,16.87,0,0,0,125,132.73Z"/><rect class="cls-3" x="114.52" y="112.14" width="1.87" height="29.15"/><circle class="cls-4" cx="183.22" cy="54.93" r="26.1"/><path class="cls-2" d="M192.59,48.43h-1V45.05a8.34,8.34,0,0,0-16.68,0v3.38h-1a3.66,3.66,0,0,0-3.65,3.65V66.14a3.66,3.66,0,0,0,3.65,3.65h18.74a3.66,3.66,0,0,0,3.65-3.65V52.08A3.66,3.66,0,0,0,192.59,48.43Zm-2.48,0h-3.24V45.05c0-2.42-1.23-3.65-3.65-3.65s-3.65,1.23-3.65,3.65v3.38h-3.24V45.05a6.89,6.89,0,0,1,13.78,0Zm-4.68,0H181V45.05c0-1.6.6-2.2,2.21-2.2s2.21.6,2.21,2.2Zm-5.86,1.45h13a2.21,2.21,0,0,1,2.21,2.2V66.14a2.21,2.21,0,0,1-2.21,2.21H173.85a2.21,2.21,0,0,1-2.21-2.21V52.08a2.21,2.21,0,0,1,2.21-2.2h5.72Z"/><path class="cls-2" d="M188.1,66.28l-2.48-6.62a4.24,4.24,0,1,0-4.8,0l-2.48,6.62Zm-3.36-7.76-.88.57L186,64.83h-5.6l2.15-5.74-.87-.57a2.79,2.79,0,1,1,3,0Z"/><path class="cls-4" d="M189.8,90.09a1.72,1.72,0,1,1,1.73-1.72A1.72,1.72,0,0,1,189.8,90.09Z"/><path class="cls-4" d="M197.53,94.29a1.73,1.73,0,1,1,1.73-1.72A1.72,1.72,0,0,1,197.53,94.29Z"/><path class="cls-4" d="M205.66,95.9a1.73,1.73,0,1,1,1.72-1.72A1.73,1.73,0,0,1,205.66,95.9Z"/><path class="cls-4" d="M214,95.9a1.73,1.73,0,1,1,1.73-1.72A1.72,1.72,0,0,1,214,95.9Z"/><circle class="cls-5" cx="347.54" cy="33.86" r="28.3"/><path class="cls-4" d="M348.68,47.11v2.77a.74.74,0,0,1-.73.74h0a.74.74,0,0,1-.74-.74V47.11c-5.58-.27-8.94-3.44-9.37-8a.91.91,0,0,1,.9-1h0a.9.9,0,0,1,.89.79c.35,3.86,3.35,6.55,8.32,6.55,4.61,0,7.34-2.16,7.34-5.91,0-3.35-2.12-5-5.06-5.67l-5.05-1c-3.76-.77-6.45-2.77-6.45-7.09,0-3.8,2.86-7.3,8.48-7.43V15.47a.74.74,0,0,1,.74-.74h0a.74.74,0,0,1,.73.74v3c4.49.38,7.31,3,7.77,7.19a.83.83,0,0,1-.81.93h-.12a.82.82,0,0,1-.81-.76c-.41-3.69-3-5.81-7.21-5.81-4.73,0-7,2.74-7,5.79,0,3.39,2.16,5,5.5,5.63l5.22,1.06c3.35.69,5.83,2.9,5.83,7.06C357.08,44.05,353.9,46.87,348.68,47.11Z"/><path class="cls-5" d="M349.13,72.67A1.71,1.71,0,1,1,350.84,71,1.71,1.71,0,0,1,349.13,72.67Z"/><path class="cls-5" d="M348.34,80.86a1.71,1.71,0,1,1,1.7-1.71A1.72,1.72,0,0,1,348.34,80.86Z"/><path class="cls-5" d="M344.6,87.22a1.71,1.71,0,1,1,1.71-1.7A1.71,1.71,0,0,1,344.6,87.22Z"/><path class="cls-5" d="M338.69,92.45a1.71,1.71,0,1,1,1.7-1.7A1.71,1.71,0,0,1,338.69,92.45Z"/><path class="cls-5" d="M331.43,94.53a1.71,1.71,0,1,1,0-3.41,1.71,1.71,0,0,1,0,3.41Z"/><path class="cls-5" d="M324.17,94.53a1.71,1.71,0,1,1,0-3.41,1.71,1.71,0,0,1,0,3.41Z"/><path class="cls-5" d="M316.91,94.53a1.71,1.71,0,1,1,0-3.41,1.71,1.71,0,0,1,0,3.41Z"/><rect class="cls-3" x="219.48" y="21.63" width="73.14" height="119.28"/><rect class="cls-1" x="292.62" y="21.63" width="18.09" height="119.28"/><rect class="cls-2" x="227.32" y="29.66" width="10.55" height="20.82"/><rect class="cls-6" x="249.55" y="29.66" width="10.55" height="20.82"/><rect class="cls-6" x="227.32" y="55.79" width="10.55" height="20.82"/><rect class="cls-6" x="249.55" y="55.79" width="10.55" height="20.82"/><rect class="cls-6" x="227.32" y="81.71" width="10.55" height="20.82"/><rect class="cls-6" x="249.55" y="81.71" width="10.55" height="20.82"/><rect class="cls-6" x="271.78" y="29.66" width="10.55" height="20.82"/><rect class="cls-6" x="271.78" y="55.79" width="10.55" height="20.82"/><rect class="cls-6" x="271.78" y="81.71" width="10.55" height="20.82"/><rect class="cls-1" x="246.7" y="128.14" width="17.56" height="12.76"/><path class="cls-7" d="M255.64,115h0c4.76,0,8.62,4.49,8.62,10v3.09h-23V115Z"/><path class="cls-6" d="M241.21,115a10,10,0,0,0-10,10v3.09h20v-3.09A10,10,0,0,0,241.21,115Z"/><rect class="cls-8" x="210.68" y="14.75" width="81.94" height="6.87"/><rect class="cls-6" x="292.62" y="14.75" width="18.09" height="6.87"/><polygon class="cls-3" points="415.27 103.11 430.13 117.99 430.13 141.17 403.14 141.17 388.27 103.11 415.27 103.11"/><polygon class="cls-6" points="388.27 103.11 403.14 117.99 403.14 141.17 373.41 141.17 373.41 117.99 388.27 103.11"/><rect class="cls-1" x="383.92" y="128.23" width="8.71" height="12.95"/><path class="cls-6" d="M425,137.17H406.78V122.06H425Zm-16.19-2.08H423v-11H408.85Z"/><polygon class="cls-1" points="92.94 106.24 106.58 119.9 106.58 141.17 81.81 141.17 68.17 106.24 92.94 106.24"/><polygon class="cls-6" points="68.17 106.24 81.81 119.9 81.81 141.17 54.52 141.17 54.52 119.9 68.17 106.24"/><rect class="cls-1" x="64.17" y="129.29" width="8" height="11.88"/><path class="cls-6" d="M103.26,137.58H86.34v-14h16.92Zm-14.85-2.07h12.78v-9.89H88.41Z"/><polygon class="cls-1" points="92.94 85.63 106.58 99.29 106.58 120.56 81.81 120.56 68.17 85.63 92.94 85.63"/><polygon class="cls-6" points="68.17 85.63 81.81 99.29 81.81 120.56 54.52 120.56 54.52 99.29 68.17 85.63"/><path class="cls-6" d="M103.26,117H86.34v-14h16.92ZM88.41,114.9h12.78V105H88.41Z"/></svg>